STARTFONT 2.1
COMMENT
COMMENT Converted from OpenType font "VCR_OSD_MONO_1.001.ttf" by "otf2bdf 3.0".
COMMENT
FONT -FreeType-VCR OSD Mono-Medium-R-Normal--44-320-100-100-P-193-ISO10646-1
SIZE 32 100 100
FONTBOUNDINGBOX 26 37 0 0
STARTPROPERTIES 19
FOUNDRY "FreeType"
FAMILY_NAME "VCR OSD Mono"
WEIGHT_NAME "Medium"
SLANT "R"
SETWIDTH_NAME "Normal"
ADD_STYLE_NAME ""
PIXEL_SIZE 44
POINT_SIZE 320
RESOLUTION_X 100
RESOLUTION_Y 100
SPACING "P"
AVERAGE_WIDTH 193
CHARSET_REGISTRY "ISO10646"
CHARSET_ENCODING "1"
FONT_ASCENT 38
FONT_DESCENT 0
COPYRIGHT "-FreeType-VCR OSD Mono-Medium-R-Normal--44-320-100-100-P-193-ISO10646-1"
_OTF_FONTFILE "VCR_OSD_MONO_1.001.ttf"
_OTF_PSNAME "VCROSDMono"
ENDPROPERTIES
CHARS 207
STARTCHAR 0000
ENCODING 0
SWIDTH 0 0
DWIDTH 0 0
BBX 0 0 0 0
BITMAP
ENDCHAR
STARTCHAR 001D
ENCODING 29
SWIDTH 0 0
DWIDTH 0 0
BBX 0 0 0 0
BITMAP
ENDCHAR
STARTCHAR 0020
ENCODING 32
SWIDTH 585 0
DWIDTH 26 0
BBX 0 0 0 0
BITMAP
ENDCHAR
STARTCHAR 0021
ENCODING 33
SWIDTH 585 0
DWIDTH 26 0
BBX 4 30 9 2
BITMAP
F0
F0
F0
F0
F0
F0
F0
F0
F0
F0
F0
F0
F0
F0
F0
F0
F0
F0
F0
F0
F0
00
00
00
00
00
F0
F0
F0
F0
ENDCHAR
STARTCHAR 0022
ENCODING 34
SWIDTH 585 0
DWIDTH 26 0
BBX 17 9 4 23
BITMAP
FE1F80
FE1F80
FE1F80
FE1F80
FE1F80
FE1F80
380600
380600
380600
ENDCHAR
STARTCHAR 0023
ENCODING 35
SWIDTH 585 0
DWIDTH 26 0
BBX 22 28 2 4
BITMAP
000780
000780
0F8780
0F8780
0F87FC
0F87FC
0FFFFC
0FFFFC
CFFF80
FFFF80
FF8780
FF8780
FF8780
0F8780
0F8780
0F87FC
0F87FC
0FFFFC
0FFFFC
FFFF80
FFFF80
FF8780
FF8780
0F8780
0F8780
0F8000
0F8000
0F8000
ENDCHAR
STARTCHAR 0024
ENCODING 36
SWIDTH 585 0
DWIDTH 26 0
BBX 22 30 2 2
BITMAP
007800
007800
0FFF80
0FFF80
3FFFF0
3FFFF0
FE79FC
FE79FC
F0787C
F0787C
FE7800
FE7800
FE7800
3FFF80
3FFF80
0FFFF0
0FFFF0
0079FC
0079FC
F0787C
F0787C
FE79FC
FE79FC
3FFFF0
3FFFF0
0FFF80
0FFF80
007800
007800
007800
ENDCHAR
STARTCHAR 0025
ENCODING 37
SWIDTH 585 0
DWIDTH 26 0
BBX 22 30 2 2
BITMAP
3F807C
3F807C
FFE07C
FFE07C
F1E07C
F1E07C
F1E07C
F1E1FC
F1E1FC
FFE7E0
FFE7E0
3F9F80
3F9F80
007E00
007E00
01F800
01F800
0FE7E0
0FE7E0
3F9FFC
3F9FFC
FE1E7C
FE1E7C
F01E7C
F01E7C
F01FFC
F01FFC
F01FFC
F007E0
F007E0
ENDCHAR
STARTCHAR 0026
ENCODING 38
SWIDTH 585 0
DWIDTH 26 0
BBX 22 34 2 2
BITMAP
01F800
01F800
0FFE00
0FFE00
3E0780
3E0780
3E0780
3E0780
3E0780
3E0780
3E0780
3E0780
3E0780
0F9E00
0F9E00
0FFE00
0FFE00
3FF800
3FF800
FFF800
FFF800
F07E7C
F07E7C
F01FFC
F01FFC
F007E0
F007E0
F007E0
FE07E0
FE07E0
3FFFFC
3FFFFC
0FFE7C
0FFE7C
ENDCHAR
STARTCHAR 0027
ENCODING 39
SWIDTH 585 0
DWIDTH 26 0
BBX 6 8 9 24
BITMAP
FC
FC
FC
FC
FC
FC
30
30
ENDCHAR
STARTCHAR 0028
ENCODING 40
SWIDTH 585 0
DWIDTH 26 0
BBX 11 35 6 2
BITMAP
01E0
01E0
0180
0780
0780
1E00
1E00
F800
F800
F800
F800
F800
F800
F800
F800
F800
F800
F800
F800
F800
F800
F800
F800
F800
F800
F800
F800
F800
F800
1E00
1E00
0780
0780
01E0
01E0
ENDCHAR
STARTCHAR 0029
ENCODING 41
SWIDTH 585 0
DWIDTH 26 0
BBX 10 35 9 2
BITMAP
F000
F000
FC00
3C00
3C00
0F00
0F00
03C0
03C0
03C0
03C0
03C0
03C0
03C0
03C0
03C0
03C0
03C0
03C0
03C0
03C0
03C0
03C0
03C0
03C0
03C0
03C0
03C0
03C0
0F00
0F00
3C00
3C00
F000
F000
ENDCHAR
STARTCHAR 002A
ENCODING 42
SWIDTH 585 0
DWIDTH 26 0
BBX 17 19 4 15
BITMAP
01E000
01E000
C1E180
C1E180
F9E780
F9E780
3FFE00
3FFE00
07F800
07F800
07F800
3FFE00
B9E780
F9E780
F9E780
C1E180
C1E180
01E000
01E000
ENDCHAR
STARTCHAR 002B
ENCODING 43
SWIDTH 585 0
DWIDTH 26 0
BBX 22 22 2 6
BITMAP
007800
007800
007800
007800
007800
007800
007800
007800
007800
FFFFFC
FFFFFC
FFFFFC
FFFFFC
007800
007800
007800
007800
007800
007800
007800
007800
007800
ENDCHAR
STARTCHAR 002C
ENCODING 44
SWIDTH 585 0
DWIDTH 26 0
BBX 9 9 6 2
BITMAP
0780
0780
0780
0780
0600
1E00
1E00
F800
F800
ENDCHAR
STARTCHAR 002D
ENCODING 45
SWIDTH 585 0
DWIDTH 26 0
BBX 17 4 4 15
BITMAP
FFFF80
FFFF80
FFFF80
FFFF80
ENDCHAR
STARTCHAR 002E
ENCODING 46
SWIDTH 585 0
DWIDTH 26 0
BBX 4 4 9 2
BITMAP
F0
F0
F0
F0
ENDCHAR
STARTCHAR 002F
ENCODING 47
SWIDTH 585 0
DWIDTH 26 0
BBX 22 30 2 2
BITMAP
00007C
00007C
00007C
00007C
00007C
00007C
0001FC
0001FC
0001FC
0007F0
0007F0
001F80
001F80
007E00
007E00
01F800
01F800
0FE000
0FE000
3F8000
3F8000
FE0000
FE0000
FE0000
F00000
F00000
F00000
F00000
F00000
F00000
ENDCHAR
STARTCHAR 0030
ENCODING 48
SWIDTH 585 0
DWIDTH 26 0
BBX 22 30 2 2
BITMAP
0FFF80
0FFF80
3FFFF0
3FFFF0
FE01FC
FE01FC
F0007C
F0007C
F007FC
F007FC
F01FFC
F01FFC
F07FFC
F07E7C
F07E7C
F1F87C
F1F87C
FFF87C
FFE07C
FFE07C
FF807C
FF807C
F0007C
F0007C
FE01FC
FE01FC
3FFFF0
3FFFF0
0FFF80
0FFF80
ENDCHAR
STARTCHAR 0031
ENCODING 49
SWIDTH 585 0
DWIDTH 26 0
BBX 13 30 6 2
BITMAP
0780
0780
1F80
1F80
FF80
FF80
FF80
FF80
0780
0780
0780
0780
0780
0780
0780
0780
0780
0780
0780
0780
0780
0780
0780
0780
0780
0780
FFF8
FFF8
FFF8
FFF8
ENDCHAR
STARTCHAR 0032
ENCODING 50
SWIDTH 585 0
DWIDTH 26 0
BBX 22 30 2 2
BITMAP
0FFF80
0FFF80
3FFFF0
3FFFF0
FE01FC
FE01FC
F0007C
F0007C
00007C
00007C
00007C
0001FC
0001FC
0FFFF0
0FFFF0
3FFF80
3FFF80
FE0000
FE0000
F00000
F00000
F00000
F00000
F00000
F00000
F00000
FFFFFC
FFFFFC
FFFFFC
FFFFFC
ENDCHAR
STARTCHAR 0033
ENCODING 51
SWIDTH 585 0
DWIDTH 26 0
BBX 22 30 2 2
BITMAP
0FFF80
0FFF80
3FFFE0
3FFFE0
FE01FC
FE01FC
F0007C
F0007C
00007C
00007C
00007C
0001FC
0001FC
007FE0
007FE0
007FE0
007FE0
0001FC
0001FC
00007C
00007C
F0007C
F0007C
F0007C
FE01FC
7E01E4
3FFFE0
0FFF80
0FFF80
0FFF80
ENDCHAR
STARTCHAR 0034
ENCODING 52
SWIDTH 585 0
DWIDTH 26 0
BBX 22 30 2 2
BITMAP
000780
000780
001F80
001F80
007F80
007F80
01FF80
01FF80
0FE780
0FE780
3FE780
3F8780
3F8780
FE0780
FE0780
F00780
F00780
FFFFFC
FFFFFC
FFFFFC
FFFFFC
000780
000780
000780
000780
000780
000780
000780
000780
000780
ENDCHAR
STARTCHAR 0035
ENCODING 53
SWIDTH 585 0
DWIDTH 26 0
BBX 22 30 2 2
BITMAP
FFFFFC
FFFFFC
FFFFFC
FFFFFC
F00000
F00000
F00000
F00000
F00000
FFFF80
FFFF80
FFFFF0
FFFFF0
0001FC
0001FC
00007C
00007C
00007C
00007C
00007C
00007C
F0007C
F0007C
F0007C
FE01FC
FE01FC
3FFFF0
0FFF80
0FFF80
0FFF80
ENDCHAR
STARTCHAR 0036
ENCODING 54
SWIDTH 585 0
DWIDTH 26 0
BBX 22 30 2 2
BITMAP
0FFF80
0FFF80
3FFFF0
3FFFF0
FE01FC
FE01FC
F0007C
F0007C
F00000
F00000
F00000
F00000
F00000
FFFF80
FFFF80
FFFFF0
FFFFF0
F001FC
F001FC
F0007C
F0007C
F0007C
F0007C
F0007C
FE01FC
FE01FC
3FFFF0
3FFFF0
0FFF80
0FFF80
ENDCHAR
STARTCHAR 0037
ENCODING 55
SWIDTH 585 0
DWIDTH 26 0
BBX 22 30 2 2
BITMAP
FFFFFC
FFFFFC
FFFFFC
FFFFFC
00007C
00007C
00007C
00007C
0001FC
0001FC
0001FC
0007F0
0007F0
001F80
001F80
007E00
007E00
007800
007800
007800
007800
007800
007800
007800
007800
007800
007800
007800
007800
007800
ENDCHAR
STARTCHAR 0038
ENCODING 56
SWIDTH 585 0
DWIDTH 26 0
BBX 22 30 2 2
BITMAP
0FFF80
0FFF80
3FFFF0
3FFFF0
FE01FC
FE01FC
F0007C
F0007C
F0007C
F0007C
FE01FC
FE01FC
FE01FC
3FFFE0
3FFFE0
3FFFE0
3FFFE0
FE01FC
FE01FC
F0007C
F0007C
F0007C
F0007C
F0007C
FE01FC
FE01FC
3FFFF0
3FFFF0
0FFF80
0FFF80
ENDCHAR
STARTCHAR 0039
ENCODING 57
SWIDTH 585 0
DWIDTH 26 0
BBX 22 30 2 2
BITMAP
0FFF80
0FFF80
3FFFF0
3FFFF0
FE01FC
FE01FC
F0007C
F0007C
F0007C
F0007C
F0007C
FE007C
FE007C
3FFFFC
3FFFFC
0FFFFC
0FFFFC
00007C
00007C
00007C
00007C
F0007C
F0007C
F0007C
FE01FC
7FE1F4
3FFFF0
0FFF80
0FFF80
0FFF80
ENDCHAR
STARTCHAR 003A
ENCODING 58
SWIDTH 585 0
DWIDTH 26 0
BBX 4 21 9 7
BITMAP
F0
F0
F0
F0
00
00
00
00
00
00
00
00
00
00
00
00
00
F0
F0
F0
F0
ENDCHAR
STARTCHAR 003B
ENCODING 59
SWIDTH 585 0
DWIDTH 26 0
BBX 9 26 4 2
BITMAP
0780
0780
0780
0780
0000
0000
0000
0000
0000
0000
0000
0000
0000
0000
0000
0000
0000
0780
0780
0780
0780
0780
3E00
3E00
F800
F800
ENDCHAR
STARTCHAR 003C
ENCODING 60
SWIDTH 585 0
DWIDTH 26 0
BBX 17 32 4 2
BITMAP
000780
000780
001F80
001F80
007E00
007E00
01F800
01F800
07E000
07E000
3F8000
3F8000
3E0000
FE0000
FE0000
F80000
F80000
FE0000
FE0000
3F8000
3F8000
07E000
07E000
01F800
01F800
01FE00
007E00
007E00
001F80
001F80
000780
000780
ENDCHAR
STARTCHAR 003D
ENCODING 61
SWIDTH 585 0
DWIDTH 26 0
BBX 22 12 2 11
BITMAP
FFFFFC
FFFFFC
FFFFFC
FFFFFC
000000
000000
000000
000000
FFFFFC
FFFFFC
FFFFFC
FFFFFC
ENDCHAR
STARTCHAR 003E
ENCODING 62
SWIDTH 585 0
DWIDTH 26 0
BBX 17 32 4 2
BITMAP
F80000
F80000
FE0000
FE0000
3F8000
3F8000
07E000
07E000
01F800
01F800
007E00
007E00
007F80
001F80
001F80
000780
000780
001F80
001F80
007E00
007E00
01F800
01F800
07E000
07E000
078000
3F8000
3F8000
FE0000
FE0000
F80000
F80000
ENDCHAR
STARTCHAR 003F
ENCODING 63
SWIDTH 585 0
DWIDTH 26 0
BBX 22 30 2 2
BITMAP
0FFF80
0FFF80
3FFFF0
3FFFF0
FE01FC
FE01FC
F0007C
F0007C
00007C
00007C
0001FC
0001FC
0007F0
0007F0
0007F0
001F80
001F80
007E00
007E00
007800
007800
000000
000000
000000
000000
000000
007800
007800
007800
007800
ENDCHAR
STARTCHAR 0040
ENCODING 64
SWIDTH 585 0
DWIDTH 26 0
BBX 22 26 2 4
BITMAP
0FFF80
0FFF80
3E01E0
3E01E0
F0007C
F0007C
C1E61C
C1E61C
CF9E1C
CF9E1C
CF9E1C
CF9E1C
CF9E1C
CF9E1C
CF9E1C
CF9E7C
CF9E7C
C1F9E0
C1F9E0
F00000
F00000
F00000
3E01E0
3E01E0
0FFF80
0FFF80
ENDCHAR
STARTCHAR 0041
ENCODING 65
SWIDTH 585 0
DWIDTH 26 0
BBX 22 30 2 2
BITMAP
007800
007800
01FE00
01FE00
0FFF80
0FFF80
3F87F0
3F87F0
FE01FC
FE01FC
F0007C
F0007C
F0007C
F0007C
F0007C
F0007C
F0007C
FFFFFC
FFFFFC
FFFFFC
FFFFFC
F0007C
F0007C
F0007C
F0007C
F0007C
F0007C
F0007C
F0007C
F0007C
ENDCHAR
STARTCHAR 0042
ENCODING 66
SWIDTH 585 0
DWIDTH 26 0
BBX 22 30 2 2
BITMAP
FFFF80
FFFF80
FFFFF0
FFFFF0
F001FC
F001FC
F0007C
F0007C
F0007C
F0007C
F0007C
F001FC
F001FC
FFFFE0
FFFFE0
FFFFE0
FFFFE0
F001FC
F001FC
F0007C
F0007C
F0007C
F0007C
F0007C
F001FC
F001FC
FFFFF0
FFFFF0
FFFF80
FFFF80
ENDCHAR
STARTCHAR 0043
ENCODING 67
SWIDTH 585 0
DWIDTH 26 0
BBX 22 30 2 2
BITMAP
0FFF80
0FFF80
3FFFF0
3FFFF0
FE01FC
FE01FC
F0007C
F0007C
F00000
F00000
F00000
F00000
F00000
F00000
F00000
F00000
F00000
F00000
F00000
F00000
F00000
F0007C
F0007C
F0007C
FE01FC
FE01FC
3FFFF0
0FFF80
0FFF80
0FFF80
ENDCHAR
STARTCHAR 0044
ENCODING 68
SWIDTH 585 0
DWIDTH 26 0
BBX 22 30 2 2
BITMAP
FFFF80
FFFF80
FFFFF0
FFFFF0
F001FC
F001FC
F0007C
F0007C
F0007C
F0007C
F0007C
F0007C
F0007C
F0007C
F0007C
F0007C
F0007C
F0007C
F0007C
F0007C
F0007C
F0007C
F0007C
F0007C
F001FC
F001FC
FFFFF0
FFFFF0
FFFF80
FFFF80
ENDCHAR
STARTCHAR 0045
ENCODING 69
SWIDTH 585 0
DWIDTH 26 0
BBX 22 30 2 2
BITMAP
FFFFFC
FFFFFC
FFFFFC
FFFFFC
F00000
F00000
F00000
F00000
F00000
F00000
F00000
F00000
F00000
FFFF80
FFFF80
FFFF80
FFFF80
F00000
F00000
F00000
F00000
F00000
F00000
F00000
F00000
F00000
FFFFFC
FFFFFC
FFFFFC
FFFFFC
ENDCHAR
STARTCHAR 0046
ENCODING 70
SWIDTH 585 0
DWIDTH 26 0
BBX 22 30 2 2
BITMAP
FFFFFC
FFFFFC
FFFFFC
FFFFFC
F00000
F00000
F00000
F00000
F00000
F00000
F00000
F00000
F00000
FFFF80
FFFF80
FFFF80
FFFF80
F00000
F00000
F00000
F00000
F00000
F00000
F00000
F00000
F00000
F00000
F00000
F00000
F00000
ENDCHAR
STARTCHAR 0047
ENCODING 71
SWIDTH 585 0
DWIDTH 26 0
BBX 22 30 2 2
BITMAP
0FFF80
0FFF80
3FFFF0
3FFFF0
FE01FC
FE01FC
F0007C
F0007C
F00000
F00000
F00000
F00000
F00000
F01FFC
F01FFC
F01FFC
F01FFC
F0007C
F0007C
F0007C
F0007C
F0007C
F0007C
F0007C
FE01FC
FE01FC
3FFFF0
3FFFF0
0FFF80
0FFF80
ENDCHAR
STARTCHAR 0048
ENCODING 72
SWIDTH 585 0
DWIDTH 26 0
BBX 22 30 2 2
BITMAP
F0007C
F0007C
F0007C
F0007C
F0007C
F0007C
F0007C
F0007C
F0007C
F0007C
F0007C
F0007C
F0007C
FFFFFC
FFFFFC
FFFFFC
FFFFFC
F0007C
F0007C
F0007C
F0007C
F0007C
F0007C
F0007C
F0007C
F0007C
F0007C
F0007C
F0007C
F0007C
ENDCHAR
STARTCHAR 0049
ENCODING 73
SWIDTH 585 0
DWIDTH 26 0
BBX 13 30 6 2
BITMAP
FFF8
FFF8
FFF8
FFF8
0780
0780
0780
0780
0780
0780
0780
0780
0780
0780
0780
0780
0780
0780
0780
0780
0780
0780
0780
0780
0780
0780
FFF8
FFF8
FFF8
FFF8
ENDCHAR
STARTCHAR 004A
ENCODING 74
SWIDTH 585 0
DWIDTH 26 0
BBX 22 30 2 2
BITMAP
007FFC
007FFC
007FFC
007FFC
000780
000780
000780
000780
000780
000780
000780
000780
000780
000780
000780
000780
000780
000780
000780
000780
000780
F00780
F00780
F00780
FE1F80
7F9E80
3FFE00
0FF800
0FF800
0FF800
ENDCHAR
STARTCHAR 004B
ENCODING 75
SWIDTH 585 0
DWIDTH 26 0
BBX 22 30 2 2
BITMAP
F0007C
F0007C
F001FC
F001FC
F007E0
F007E0
F01F80
F01F80
F07E00
F07E00
F1F800
F1F800
F1F800
FFE000
FFE000
FFE000
FFE000
F1F800
F1F800
F07E00
F07E00
F01F80
F01F80
F01FE0
F007E0
F007E0
F001FC
F001FC
F0007C
F0007C
ENDCHAR
STARTCHAR 004C
ENCODING 76
SWIDTH 585 0
DWIDTH 26 0
BBX 22 30 2 2
BITMAP
F00000
F00000
F00000
F00000
F00000
F00000
F00000
F00000
F00000
F00000
F00000
F00000
F00000
F00000
F00000
F00000
F00000
F00000
F00000
F00000
F00000
F00000
F00000
F00000
F00000
F00000
FFFFFC
FFFFFC
FFFFFC
FFFFFC
ENDCHAR
STARTCHAR 004D
ENCODING 77
SWIDTH 585 0
DWIDTH 26 0
BBX 22 30 2 2
BITMAP
F0007C
F0007C
F0007C
F0007C
FE01FC
FE01FC
FF87FC
FF87FC
FFFFFC
FFFFFC
F1FE7C
F1FE7C
F0787C
F0787C
F0787C
F0787C
F0787C
F0007C
F0007C
F0007C
F0007C
F0007C
F0007C
F0007C
F0007C
F0007C
F0007C
F0007C
F0007C
F0007C
ENDCHAR
STARTCHAR 004E
ENCODING 78
SWIDTH 585 0
DWIDTH 26 0
BBX 22 30 2 2
BITMAP
F0007C
F0007C
F0007C
F0007C
F0007C
F0007C
FE007C
FE007C
FE007C
FF807C
FF807C
FFE07C
FFE07C
F1F87C
F1F87C
F07E7C
F07E7C
F01FFC
F01FFC
F007FC
F007FC
F001FC
F001FC
F001FC
F0007C
F0007C
F0007C
F0007C
F0007C
F0007C
ENDCHAR
STARTCHAR 004F
ENCODING 79
SWIDTH 585 0
DWIDTH 26 0
BBX 22 30 2 2
BITMAP
0FFF80
0FFF80
3FFFF0
3FFFF0
FE01FC
FE01FC
F0007C
F0007C
F0007C
F0007C
F0007C
F0007C
F0007C
F0007C
F0007C
F0007C
F0007C
F0007C
F0007C
F0007C
F0007C
F0007C
F0007C
F0007C
FE01FC
FE01FC
3FFFF0
3FFFF0
0FFF80
0FFF80
ENDCHAR
STARTCHAR 0050
ENCODING 80
SWIDTH 585 0
DWIDTH 26 0
BBX 22 30 2 2
BITMAP
FFFF80
FFFF80
FFFFF0
FFFFF0
F001FC
F001FC
F0007C
F0007C
F0007C
F0007C
F0007C
F001FC
F001FC
FFFFF0
FFFFF0
FFFF80
FFFF80
F00000
F00000
F00000
F00000
F00000
F00000
F00000
F00000
F00000
F00000
F00000
F00000
F00000
ENDCHAR
STARTCHAR 0051
ENCODING 81
SWIDTH 585 0
DWIDTH 26 0
BBX 22 30 2 2
BITMAP
0FFF80
0FFF80
3FFFF0
3FFFF0
FE01FC
FE01FC
F0007C
F0007C
F0007C
F0007C
F0007C
F0007C
F0007C
F0007C
F0007C
F0007C
F0007C
F0787C
F0787C
F07E7C
F07E7C
F01FFC
F01FFC
FE07E0
FE07E0
FE07E0
3FFFFC
3FFFFC
0FF87C
0FF87C
ENDCHAR
STARTCHAR 0052
ENCODING 82
SWIDTH 585 0
DWIDTH 26 0
BBX 22 30 2 2
BITMAP
FFFF80
FFFF80
FFFFF0
FFFFF0
F001FC
F001FC
F0007C
F0007C
F0007C
F0007C
F0007C
F001FC
F001FC
FFFFF0
FFFFF0
FFFF80
FFFF80
F1F800
F1F800
F07E00
F07E00
F01F80
F01F80
F01FF0
F007F0
F007F0
F001FC
F001FC
F0007C
F0007C
ENDCHAR
STARTCHAR 0053
ENCODING 83
SWIDTH 585 0
DWIDTH 26 0
BBX 22 30 2 2
BITMAP
0FFF80
0FFF80
3FFFF0
3FFFF0
FE01FC
FE01FC
F0007C
F0007C
F00000
F00000
F00000
FE0000
FE0000
3FFF80
3FFF80
0FFFF0
0FFFF0
0001FC
0001FC
00007C
00007C
F0007C
F0007C
F0007C
FE01FC
FE01FC
3FFFF0
0FFF80
0FFF80
0FFF80
ENDCHAR
STARTCHAR 0054
ENCODING 84
SWIDTH 585 0
DWIDTH 26 0
BBX 22 30 2 2
BITMAP
FFFFFC
FFFFFC
FFFFFC
FFFFFC
007800
007800
007800
007800
007800
007800
007800
007800
007800
007800
007800
007800
007800
007800
007800
007800
007800
007800
007800
007800
007800
007800
007800
007800
007800
007800
ENDCHAR
STARTCHAR 0055
ENCODING 85
SWIDTH 585 0
DWIDTH 26 0
BBX 22 30 2 2
BITMAP
F0007C
F0007C
F0007C
F0007C
F0007C
F0007C
F0007C
F0007C
F0007C
F0007C
F0007C
F0007C
F0007C
F0007C
F0007C
F0007C
F0007C
F0007C
F0007C
F0007C
F0007C
F0007C
F0007C
F0007C
FE01FC
FE01FC
3FFFF0
3FFFF0
0FFF80
0FFF80
ENDCHAR
STARTCHAR 0056
ENCODING 86
SWIDTH 585 0
DWIDTH 26 0
BBX 22 30 2 2
BITMAP
F0007C
F0007C
F0007C
F0007C
F0007C
F0007C
F0007C
F0007C
F0007C
F0007C
F0007C
F0007C
F0007C
F0007C
F0007C
F0007C
F0007C
F0007C
F0007C
FE01FC
FE01FC
3F87F0
3F87F0
3F87F0
0FFF80
01FE00
01FE00
007800
007800
007800
ENDCHAR
STARTCHAR 0057
ENCODING 87
SWIDTH 585 0
DWIDTH 26 0
BBX 22 30 2 2
BITMAP
F0007C
F0007C
F0007C
F0007C
F0007C
F0007C
F0007C
F0007C
F0007C
F0007C
F0007C
F0007C
F0007C
F0787C
F0787C
F0787C
F0787C
F0787C
F0787C
F0787C
F0787C
F0787C
F0787C
F0787C
FFFFFC
FFFFFC
3FFFF0
3FFFF0
0F8780
0F8780
ENDCHAR
STARTCHAR 0058
ENCODING 88
SWIDTH 585 0
DWIDTH 26 0
BBX 22 30 2 2
BITMAP
F0007C
F0007C
F0007C
F0007C
F0007C
F0007C
FE01FC
FE01FC
FE01FC
3F87E0
1F87E0
0FFF80
01FE00
01FE00
01FE00
01FE00
01FE00
0FFF80
0FFF80
3F87E0
3F87E0
FE01FC
FE01FC
F0007C
F0007C
F0007C
F0007C
F0007C
F0007C
F0007C
ENDCHAR
STARTCHAR 0059
ENCODING 89
SWIDTH 585 0
DWIDTH 26 0
BBX 22 30 2 2
BITMAP
F0007C
F0007C
F0007C
F0007C
F0007C
F0007C
F0007C
F0007C
F0007C
F0007C
F0007C
FE01FC
FE01FC
3F87F0
3F87F0
0FFF80
0FFF80
01FE00
01FE00
007800
007800
007800
007800
007800
007800
007800
007800
007800
007800
007800
ENDCHAR
STARTCHAR 005A
ENCODING 90
SWIDTH 585 0
DWIDTH 26 0
BBX 22 30 2 2
BITMAP
FFFFFC
FFFFFC
FFFFFC
FFFFFC
00007C
00007C
0001FC
0001FC
0007FC
0007E0
0007E0
001F80
001F80
007E00
007E00
01F800
01F800
0FE000
0FE000
3F8000
3F8000
FF8000
FE0000
FE0000
F00000
F00000
FFFFFC
FFFFFC
FFFFFC
FFFFFC
ENDCHAR
STARTCHAR 005B
ENCODING 91
SWIDTH 585 0
DWIDTH 26 0
BBX 12 34 9 2
BITMAP
FFF0
FFF0
FFF0
FFF0
F000
F000
F000
F000
F000
F000
F000
F000
F000
F000
F000
F000
F000
F000
F000
F000
F000
F000
F000
F000
F000
F000
F000
F000
F000
F000
FFF0
FFF0
FFF0
FFF0
ENDCHAR
STARTCHAR 005C
ENCODING 92
SWIDTH 585 0
DWIDTH 26 0
BBX 22 30 2 2
BITMAP
F00000
F00000
F00000
F00000
F00000
F00000
FE0000
FE0000
FE0000
3F8000
3F8000
0FE000
0FE000
01F800
01F800
007E00
007E00
001F80
001F80
0007F0
0007F0
0001FC
0001FC
0001FC
00007C
00007C
00007C
00007C
00007C
00007C
ENDCHAR
STARTCHAR 005D
ENCODING 93
SWIDTH 585 0
DWIDTH 26 0
BBX 13 34 4 2
BITMAP
FFF8
FFF8
FFF8
FFF8
0078
0078
0078
0078
0078
0078
0078
0078
0078
0078
0078
0078
0078
0078
0078
0078
0078
0078
0078
0078
0078
0078
0078
0078
0078
0078
FFF8
FFF8
FFF8
FFF8
ENDCHAR
STARTCHAR 005E
ENCODING 94
SWIDTH 585 0
DWIDTH 26 0
BBX 22 10 2 22
BITMAP
007800
007800
01FE00
01FE00
0FFF80
0FFF80
3F87E0
3F87E0
FE01FC
FE01FC
ENDCHAR
STARTCHAR 005F
ENCODING 95
SWIDTH 585 0
DWIDTH 26 0
BBX 26 4 0 0
BITMAP
FFFFFFC0
FFFFFFC0
FFFFFFC0
FFFFFFC0
ENDCHAR
STARTCHAR 0060
ENCODING 96
SWIDTH 585 0
DWIDTH 26 0
BBX 11 6 6 26
BITMAP
FE00
FE00
1F80
1F80
01E0
01E0
ENDCHAR
STARTCHAR 0061
ENCODING 97
SWIDTH 585 0
DWIDTH 26 0
BBX 22 26 2 2
BITMAP
0FFF80
0FFF80
0FFFF0
0FFFF0
0001FC
0001FC
00007C
00007C
00007C
0FFE7C
0FFE7C
3FFFFC
3FFFFC
FE01FC
FE01FC
F0007C
F0007C
F0007C
F0007C
F0007C
FE01FC
FE01FC
3FFFFC
3FFFFC
0FFE7C
0FFE7C
ENDCHAR
STARTCHAR 0062
ENCODING 98
SWIDTH 585 0
DWIDTH 26 0
BBX 22 30 2 2
BITMAP
F00000
F00000
F00000
F00000
F00000
F00000
F07E00
F07E00
F07E00
F1FF80
F1E7E0
FFE7E0
FF81FC
FF81FC
FF81FC
FE007C
FE007C
FE007C
FE007C
FE007C
FE007C
FF81FC
FF81FC
FF81FC
FFE7E0
F1E780
F1FF80
F07E00
F07E00
F07E00
ENDCHAR
STARTCHAR 0063
ENCODING 99
SWIDTH 585 0
DWIDTH 26 0
BBX 22 24 2 2
BITMAP
0FFF80
0FFF80
0FFF80
3FFFF0
FFE1F8
FE01FC
F0007C
F0007C
F0007C
F00000
F00000
F00000
F00000
F00000
F00000
F0007C
F0007C
F0007C
FE01FC
7E1FF8
3FFFF0
0FFF80
0FFF80
0FFF80
ENDCHAR
STARTCHAR 0064
ENCODING 100
SWIDTH 585 0
DWIDTH 26 0
BBX 22 30 2 2
BITMAP
00007C
00007C
00007C
00007C
00007C
00007C
01F87C
01F87C
01F87C
0FFE7C
0F9E7C
3F9FFC
FE07FC
FE07FC
FE07FC
F001FC
F001FC
F001FC
F001FC
F001FC
F001FC
FE07FC
FE07FC
FE07FC
3F9FFC
3F9E7C
0FFE7C
01F87C
01F87C
01F87C
ENDCHAR
STARTCHAR 0065
ENCODING 101
SWIDTH 585 0
DWIDTH 26 0
BBX 22 24 2 2
BITMAP
0FFF80
0FFF80
3FFFF0
3FFFF0
FE01FC
FE01FC
F0007C
F0007C
F0007C
FFFFFC
FFFFFC
FFFFF0
FFFFF0
F00000
F00000
F00000
F00000
F00000
FE01FC
FE01FC
3FFFF0
3FFFF0
0FFF80
0FFF80
ENDCHAR
STARTCHAR 0066
ENCODING 102
SWIDTH 585 0
DWIDTH 26 0
BBX 17 30 4 2
BITMAP
007F80
007F80
01FF80
01FF80
01E000
01E000
FFFF80
FFFF80
FFFF80
FFFF80
01E000
01E000
01E000
01E000
01E000
01E000
01E000
01E000
01E000
01E000
01E000
01E000
01E000
01E000
01E000
01E000
01E000
01E000
01E000
01E000
ENDCHAR
STARTCHAR 0067
ENCODING 103
SWIDTH 585 0
DWIDTH 26 0
BBX 22 26 2 2
BITMAP
0FFF80
0FFF80
3FFFF0
3FFFF0
FE01FC
FE01FC
F0007C
F0007C
F0007C
FE01FC
FE01FC
3FFFFC
3FFFFC
0FFE7C
0FFE7C
00007C
00007C
00007C
00007C
00007C
3E01FC
3E01FC
3FFFF0
3FFFF0
0FFF80
0FFF80
ENDCHAR
STARTCHAR 0068
ENCODING 104
SWIDTH 585 0
DWIDTH 26 0
BBX 22 30 2 2
BITMAP
F00000
F00000
F00000
F00000
F00000
F00000
F07E00
F07E00
F07E00
F1FF80
F1E7F0
FFE7F0
FF81FC
FF81FC
FF81FC
FE007C
FE007C
F0007C
F0007C
F0007C
F0007C
F0007C
F0007C
F0007C
F0007C
F0007C
F0007C
F0007C
F0007C
F0007C
ENDCHAR
STARTCHAR 0069
ENCODING 105
SWIDTH 585 0
DWIDTH 26 0
BBX 13 28 6 2
BITMAP
0780
0780
0780
0780
0000
0000
0000
0000
0000
FF80
FF80
FF80
FF80
0780
0780
0780
0780
0780
0780
0780
0780
0780
07E0
07E0
01F8
01F8
0078
0078
ENDCHAR
STARTCHAR 006A
ENCODING 106
SWIDTH 585 0
DWIDTH 26 0
BBX 13 32 6 2
BITMAP
0078
0078
0078
0078
0000
0000
0000
0000
07F8
07F8
07F8
07F8
0078
0078
0078
0078
0078
0078
0078
0078
0078
0078
0078
0078
0078
0078
01F8
01F8
FFE0
FFE0
FF80
FF80
ENDCHAR
STARTCHAR 006B
ENCODING 107
SWIDTH 585 0
DWIDTH 26 0
BBX 22 30 2 2
BITMAP
F00000
F00000
F00000
F00000
F00000
F00000
F0007C
F0007C
F001FC
F001FC
F007E0
F007E0
F007E0
F01F80
F01F80
F07E00
F07E00
F1F800
F1F800
FFFE00
FFFE00
FF9F80
FF9F80
FE07E0
FE07E0
F001FC
F001FC
F001FC
F0007C
F0007C
ENDCHAR
STARTCHAR 006C
ENCODING 108
SWIDTH 585 0
DWIDTH 26 0
BBX 4 30 11 2
BITMAP
F0
F0
F0
F0
F0
F0
F0
F0
F0
F0
F0
F0
F0
F0
F0
F0
F0
F0
F0
F0
F0
F0
F0
F0
F0
F0
F0
F0
F0
F0
ENDCHAR
STARTCHAR 006D
ENCODING 109
SWIDTH 585 0
DWIDTH 26 0
BBX 22 24 2 2
BITMAP
F1FF80
F1FF80
F1FF80
FFFFF0
FE79FC
FE79FC
FE79FC
F0787C
F0787C
F0787C
F0787C
F0787C
F0787C
F0787C
F0787C
F0787C
F0787C
F0787C
F0787C
F0787C
F0787C
F0787C
F0787C
F0787C
ENDCHAR
STARTCHAR 006E
ENCODING 110
SWIDTH 585 0
DWIDTH 26 0
BBX 22 24 2 2
BITMAP
F1FF80
F1FF80
F1FF80
FFFFF0
FE01FC
FE01FC
FE01FC
F0007C
F0007C
F0007C
F0007C
F0007C
F0007C
F0007C
F0007C
F0007C
F0007C
F0007C
F0007C
F0007C
F0007C
F0007C
F0007C
F0007C
ENDCHAR
STARTCHAR 006F
ENCODING 111
SWIDTH 585 0
DWIDTH 26 0
BBX 22 24 2 2
BITMAP
0FFF80
0FFF80
3FFFF0
3FFFF0
FE01FC
FE01FC
F0007C
F0007C
F0007C
F0007C
F0007C
F0007C
F0007C
F0007C
F0007C
F0007C
F0007C
F0007C
FE01FC
FE01FC
3FFFF0
3FFFF0
0FFF80
0FFF80
ENDCHAR
STARTCHAR 0070
ENCODING 112
SWIDTH 585 0
DWIDTH 26 0
BBX 22 26 2 2
BITMAP
F1FF80
F1FF80
FFFFF0
FFFFF0
FF81FC
FF81FC
FE007C
FE007C
FE007C
FE007C
FE007C
FE007C
FE007C
FF81FC
FF81FC
FFFFF0
FFFFF0
F1FF80
F1FF80
F00000
F00000
F00000
F00000
F00000
F00000
F00000
ENDCHAR
STARTCHAR 0071
ENCODING 113
SWIDTH 585 0
DWIDTH 26 0
BBX 22 26 2 2
BITMAP
0FFE7C
0FFE7C
3FFFFC
3FFFFC
FE07FC
FE07FC
F001FC
F001FC
F001FC
F001FC
F001FC
F001FC
F001FC
FE07FC
FE07FC
3FFFFC
3FFFFC
0FF9FC
0FF9FC
00007C
00007C
00007C
00007C
00007C
00007C
00007C
ENDCHAR
STARTCHAR 0072
ENCODING 114
SWIDTH 585 0
DWIDTH 26 0
BBX 22 24 2 2
BITMAP
F07F80
F07F80
F07F80
F1FFE0
FFF9F8
FFE1FC
FF807C
FF807C
FF807C
FE0000
FE0000
F00000
F00000
F00000
F00000
F00000
F00000
F00000
F00000
F00000
F00000
F00000
F00000
F00000
ENDCHAR
STARTCHAR 0073
ENCODING 115
SWIDTH 585 0
DWIDTH 26 0
BBX 22 24 2 2
BITMAP
0FFF80
0FFF80
0FFF90
3FFFF0
FE01FC
FE01FC
FE01FC
FE007C
FE007C
3FF800
3FF800
0FFE00
01FF80
001FE0
001FE0
F001FC
F001FC
FE01FC
FE01FC
7E01F4
3FFFF0
0FFF80
0FFF80
0FFF80
ENDCHAR
STARTCHAR 0074
ENCODING 116
SWIDTH 585 0
DWIDTH 26 0
BBX 13 30 6 2
BITMAP
0780
0780
0780
0780
0780
0780
FFF8
FFF8
FFF8
FFF8
0780
0780
0780
0780
0780
0780
0780
0780
0780
0780
0780
0780
0780
07E0
07E0
07E0
01F8
01F8
0078
0078
ENDCHAR
STARTCHAR 0075
ENCODING 117
SWIDTH 585 0
DWIDTH 26 0
BBX 22 24 2 2
BITMAP
F0007C
F0007C
F0007C
F0007C
F0007C
F0007C
F0007C
F0007C
F0007C
F0007C
F0007C
F0007C
F0007C
F0007C
F0007C
F0007C
F0007C
F0007C
FE01FC
FE01FC
3FFFF0
3FFFF0
0FFF80
0FFF80
ENDCHAR
STARTCHAR 0076
ENCODING 118
SWIDTH 585 0
DWIDTH 26 0
BBX 22 24 2 2
BITMAP
F0007C
F0007C
F0007C
F0007C
F0007C
F0007C
F0007C
F0007C
F0007C
F0007C
F0007C
F0007C
F0007C
FE01FC
FE01FC
3F87F0
3F87F0
3F87F0
0FFF80
01FE00
01FE00
007800
007800
007800
ENDCHAR
STARTCHAR 0077
ENCODING 119
SWIDTH 585 0
DWIDTH 26 0
BBX 22 24 2 2
BITMAP
F0007C
F0007C
F0007C
F0007C
F0007C
F0007C
F0007C
F0007C
F0007C
F0787C
F0787C
F0787C
F0787C
F0787C
F0787C
F0787C
F0787C
F0787C
FE79FC
FE79FC
3FFFF0
3FFFF0
0F8780
0F8780
ENDCHAR
STARTCHAR 0078
ENCODING 120
SWIDTH 585 0
DWIDTH 26 0
BBX 22 24 2 2
BITMAP
F0007C
F0007C
F0007C
FE01FC
3F05F8
3F87E0
2FE7C0
0FFF80
0FFF80
01FE00
01FE00
007800
007800
01FE00
01FE00
0FFF80
0FFF80
0FFF80
3F87E0
3E83E4
FE01FC
F0007C
F0007C
F0007C
ENDCHAR
STARTCHAR 0079
ENCODING 121
SWIDTH 585 0
DWIDTH 26 0
BBX 22 26 2 2
BITMAP
F0007C
F0007C
F0007C
F0007C
F001FC
F001FC
F001FC
F001FC
F001FC
F007FC
F007FC
FE1FFC
FE1FFC
3FFE7C
3FFE7C
0FF87C
0FF87C
00007C
00007C
00007C
0001FC
0001FC
0FFFF0
0FFFF0
0FFF80
0FFF80
ENDCHAR
STARTCHAR 007A
ENCODING 122
SWIDTH 585 0
DWIDTH 26 0
BBX 22 24 2 2
BITMAP
FFFFFC
FFFFFC
FFFFFC
FFFFFC
0001FC
0001FC
0007FC
0007E0
0007E0
001F80
001F80
007E00
007E00
01F800
01F800
0FF800
0FE000
0FE000
3F8000
3F8000
FFFFFC
FFFFFC
FFFFFC
FFFFFC
ENDCHAR
STARTCHAR 007B
ENCODING 123
SWIDTH 585 0
DWIDTH 26 0
BBX 13 34 6 2
BITMAP
01F8
01F8
01F8
01F8
07F8
07F8
0780
0780
0780
0780
0780
0780
0780
0780
0780
FE00
FE00
FE00
FE00
0780
0780
0780
0780
0780
0780
0780
0780
0780
07F8
07F8
01F8
01F8
01F8
01F8
ENDCHAR
STARTCHAR 007C
ENCODING 124
SWIDTH 585 0
DWIDTH 26 0
BBX 4 35 11 2
BITMAP
F0
F0
F0
F0
F0
F0
F0
F0
F0
F0
F0
F0
F0
F0
F0
F0
F0
F0
F0
F0
F0
F0
F0
F0
F0
F0
F0
F0
F0
F0
F0
F0
F0
F0
F0
ENDCHAR
STARTCHAR 007D
ENCODING 125
SWIDTH 585 0
DWIDTH 26 0
BBX 13 34 6 2
BITMAP
FE00
FE00
FE00
FE00
FF80
FF80
0780
0780
0780
0780
0780
0780
0780
0780
0780
01F8
01F8
01F8
01F8
0780
0780
0780
0780
0780
0780
0780
0780
0780
FF80
FF80
FE00
FE00
FE00
FE00
ENDCHAR
STARTCHAR 007E
ENCODING 126
SWIDTH 585 0
DWIDTH 26 0
BBX 22 8 2 13
BITMAP
0FE01C
0FE01C
3FF87C
3FF87C
F07FE0
F07FE0
C01F80
C01F80
ENDCHAR
STARTCHAR 00A0
ENCODING 160
SWIDTH 585 0
DWIDTH 26 0
BBX 0 0 0 0
BITMAP
ENDCHAR
STARTCHAR 00A1
ENCODING 161
SWIDTH 585 0
DWIDTH 26 0
BBX 4 30 13 2
BITMAP
F0
F0
F0
F0
00
00
00
00
00
F0
F0
F0
F0
F0
F0
F0
F0
F0
F0
F0
F0
F0
F0
F0
F0
F0
F0
F0
F0
F0
ENDCHAR
STARTCHAR 00A2
ENCODING 162
SWIDTH 585 0
DWIDTH 26 0
BBX 22 30 2 2
BITMAP
007800
007800
007800
007800
0FFF80
0FFF80
3FFFF0
3FFFF0
FE79FC
FE79FC
F0787C
F0787C
F07800
F07800
F07800
F07800
F07800
F0787C
F0787C
FE79FC
FE79FC
3FFFF0
3FFFF0
0FFF80
0FFF80
007800
007800
007800
007800
007800
ENDCHAR
STARTCHAR 00A3
ENCODING 163
SWIDTH 585 0
DWIDTH 26 0
BBX 22 34 2 2
BITMAP
007F80
007F80
01FFE0
01FFE0
0FE1FC
0FE1FC
0F807C
0F807C
0F8000
0F8000
0F8000
0F8000
0F8000
FFFF80
FFFF80
FFFF80
FFFF80
0F8000
0F8000
0F8000
0F8000
0F8000
0F8000
0F8000
0F8000
0F8000
0F8000
0F8000
3E0000
3E0000
FFFFFC
FFFFFC
FFFFFC
FFFFFC
ENDCHAR
STARTCHAR 00A5
ENCODING 165
SWIDTH 585 0
DWIDTH 26 0
BBX 17 30 4 2
BITMAP
F80780
F80780
F80780
F80780
F80780
F80780
3E1E00
3E1E00
3E1E00
3E1E00
3E1E00
07F800
07F800
07F800
07F800
01E000
01E000
FFFF80
FFFF80
01E000
01E000
01E000
01E000
FFFF80
FFFF80
01E000
01E000
01E000
01E000
01E000
ENDCHAR
STARTCHAR 00A6
ENCODING 166
SWIDTH 585 0
DWIDTH 26 0
BBX 4 35 11 2
BITMAP
F0
F0
F0
F0
F0
F0
F0
F0
F0
F0
F0
F0
F0
F0
F0
00
00
00
00
00
F0
F0
F0
F0
F0
F0
F0
F0
F0
F0
F0
F0
F0
F0
F0
ENDCHAR
STARTCHAR 00A8
ENCODING 168
SWIDTH 585 0
DWIDTH 26 0
BBX 13 4 6 28
BITMAP
F878
F878
F878
F878
ENDCHAR
STARTCHAR 00A9
ENCODING 169
SWIDTH 585 0
DWIDTH 26 0
BBX 22 23 2 7
BITMAP
0FFF80
0FFF80
3E01E0
3E01E0
F07E7C
F07E7C
C1E01C
C1E01C
C1801C
C1801C
C1801C
C1801C
C1801C
C1801C
C1801C
C1E01C
C1E01C
F07E7C
F07E7C
3E01E0
3E01E0
0FFF80
0FFF80
ENDCHAR
STARTCHAR 00AA
ENCODING 170
SWIDTH 585 0
DWIDTH 26 0
BBX 15 23 4 9
BITMAP
3FF8
3FF8
F81E
F81E
001E
001E
3FFE
3FFE
F81E
F81E
C01E
C01E
C01E
F81E
F81E
3FE6
3FE6
0000
0000
FFFE
FFFE
FFFE
FFFE
ENDCHAR
STARTCHAR 00AB
ENCODING 171
SWIDTH 585 0
DWIDTH 26 0
BBX 22 19 2 7
BITMAP
00601C
00601C
00601C
01E07C
0F81E0
0F81E0
0F81E0
3E0780
B21700
F01E00
F01E00
3E0780
3E0780
0F81E0
0F81E0
01E07C
01E07C
00601C
00601C
ENDCHAR
STARTCHAR 00AD
ENCODING 173
SWIDTH 585 0
DWIDTH 26 0
BBX 17 4 4 15
BITMAP
FFFF80
FFFF80
FFFF80
FFFF80
ENDCHAR
STARTCHAR 00AE
ENCODING 174
SWIDTH 585 0
DWIDTH 26 0
BBX 22 21 2 11
BITMAP
0FFF80
0FFF80
3E01E0
3E01E0
F1F87C
F1F87C
C1861C
C1861C
C1861C
C1861C
C1861C
C1F81C
C1F81C
C1861C
C1861C
F1867C
F1867C
3E01E0
3E01E0
0FFF80
0FFF80
ENDCHAR
STARTCHAR 00B0
ENCODING 176
SWIDTH 585 0
DWIDTH 26 0
BBX 17 17 2 15
BITMAP
0FF800
0FF800
3FFE00
3FFE00
FE1F80
FE1F80
F00780
F00780
F00780
F00780
F00780
FE1F80
FE1F80
3FFE00
3FFE00
0FF800
0FF800
ENDCHAR
STARTCHAR 00B2
ENCODING 178
SWIDTH 585 0
DWIDTH 26 0
BBX 11 14 6 22
BITMAP
1F80
1F80
F9E0
F9E0
01E0
01E0
1F80
1F80
F800
F800
F800
F800
FFE0
FFE0
ENDCHAR
STARTCHAR 00B3
ENCODING 179
SWIDTH 585 0
DWIDTH 26 0
BBX 11 14 6 22
BITMAP
1F80
1F80
F9E0
F9E0
01E0
01E0
0780
0780
01E0
01E0
F9E0
F9E0
1F80
1F80
ENDCHAR
STARTCHAR 00B4
ENCODING 180
SWIDTH 585 0
DWIDTH 26 0
BBX 10 6 9 26
BITMAP
0FC0
0FC0
3F00
3F00
F000
F000
ENDCHAR
STARTCHAR 00B9
ENCODING 185
SWIDTH 585 0
DWIDTH 26 0
BBX 8 15 9 22
BITMAP
3C
3C
3C
FC
FC
3C
3C
3C
3C
3C
3C
3C
3C
FF
FF
ENDCHAR
STARTCHAR 00BA
ENCODING 186
SWIDTH 585 0
DWIDTH 26 0
BBX 15 23 4 9
BITMAP
07E0
07E0
3FF8
3FF8
F81E
F81E
F81E
F81E
F81E
F81E
F81E
F81E
F81E
3FF8
3FF8
07E0
07E0
0000
0000
FFFE
FFFE
FFFE
FFFE
ENDCHAR
STARTCHAR 00BB
ENCODING 187
SWIDTH 585 0
DWIDTH 26 0
BBX 22 19 2 7
BITMAP
C01800
C01800
C01800
F01E00
BC0700
3E0780
3E0780
0F81E0
0F81E0
01E07C
01E07C
0F81E0
0F81E0
3E0780
3E0780
F01E00
F01E00
C01800
C01800
ENDCHAR
STARTCHAR 00BC
ENCODING 188
SWIDTH 585 0
DWIDTH 26 0
BBX 22 34 2 2
BITMAP
3E0060
3E0060
FE01E0
FE01E0
3E0180
3E0180
3E0780
3E0780
3E0600
3E0600
3E1E00
3E1E00
FF9800
FF9800
007800
007800
01F800
01E000
01E000
0181E0
0F87E0
0F87E0
0F87E0
0E0660
0E0660
3E1E60
3E1E60
301FFC
301FFC
F00070
F00060
F00060
C00060
C00060
ENDCHAR
STARTCHAR 00BD
ENCODING 189
SWIDTH 585 0
DWIDTH 26 0
BBX 22 34 2 2
BITMAP
3E0060
3E0060
FE01E0
FE01E0
3E0180
3E0180
3E0780
3E0780
3E0600
3E0600
3E1E00
3E1E00
FF9800
FF9800
007800
007800
01F800
01E000
01E000
0187E0
0187E0
0F9E7C
0F9E7C
0E007C
0E007C
3E07E0
3E07E0
301E00
301E00
301E00
F01E00
F01E00
C01FFC
C01FFC
ENDCHAR
STARTCHAR 00BE
ENCODING 190
SWIDTH 585 0
DWIDTH 26 0
BBX 22 34 2 2
BITMAP
3F801C
3F801C
F1E07C
F1E07C
01E060
01E060
0F81E0
0F81E0
01E180
01E180
F1E780
F1E780
3F8600
3F8600
001E00
001E00
007E00
007800
007800
0061E0
01E7E0
01E7E0
01E7E0
018660
018660
0F9E60
0F9E60
0E1FFC
0E1FFC
3E0070
3E0060
3E0060
300060
300060
ENDCHAR
STARTCHAR 00BF
ENCODING 191
SWIDTH 585 0
DWIDTH 26 0
BBX 22 30 2 2
BITMAP
007800
007800
007800
007800
000000
000000
000000
000000
000000
007800
007800
01F800
01F800
0FE000
0FE000
3F8000
3F8000
3F8000
FE0000
FE0000
F00000
F0007C
F0007C
F0007C
FE01FC
FE01FC
3FFFE0
0FFF80
0FFF80
0FFF80
ENDCHAR
STARTCHAR 00C0
ENCODING 192
SWIDTH 585 0
DWIDTH 26 0
BBX 22 34 2 2
BITMAP
0FE000
0FE000
01F800
01F800
001E00
001E00
000000
000000
007800
007800
01FE00
01FE00
01FE00
0FFF80
3F87F0
3F87F0
FE01FC
FE01FC
FE01FC
F0007C
F0007C
F0007C
F0007C
FFFFFC
FFFFFC
FFFFFC
FFFFFC
F0007C
F0007C
F0007C
F0007C
F0007C
F0007C
F0007C
ENDCHAR
STARTCHAR 00C1
ENCODING 193
SWIDTH 585 0
DWIDTH 26 0
BBX 22 34 2 2
BITMAP
001F80
001F80
007E00
007E00
01E000
01E000
000000
000000
007800
007800
01FE00
01FE00
01FE00
0FFF80
3F87F0
3F87F0
FE01FC
FE01FC
FE01FC
F0007C
F0007C
F0007C
F0007C
FFFFFC
FFFFFC
FFFFFC
FFFFFC
F0007C
F0007C
F0007C
F0007C
F0007C
F0007C
F0007C
ENDCHAR
STARTCHAR 00C2
ENCODING 194
SWIDTH 585 0
DWIDTH 26 0
BBX 22 34 2 2
BITMAP
007800
007800
01FE00
01FE00
0F8780
0F8780
000000
000000
007800
007800
01FE00
01FE00
01FE00
0FFF80
3F87F0
3F87F0
FE01FC
FE01FC
FE01FC
F0007C
F0007C
F0007C
F0007C
FFFFFC
FFFFFC
FFFFFC
FFFFFC
F0007C
F0007C
F0007C
F0007C
F0007C
F0007C
F0007C
ENDCHAR
STARTCHAR 00C3
ENCODING 195
SWIDTH 585 0
DWIDTH 26 0
BBX 22 34 2 2
BITMAP
01E180
01E180
0FFF80
0FFF80
0E1E00
0E1E00
000000
000000
007800
007800
01FE00
01FE00
01FE00
0FFF80
3F87F0
3F87F0
FE01FC
FE01FC
FE01FC
F0007C
F0007C
F0007C
F0007C
FFFFFC
FFFFFC
FFFFFC
FFFFFC
F0007C
F0007C
F0007C
F0007C
F0007C
F0007C
F0007C
ENDCHAR
STARTCHAR 00C4
ENCODING 196
SWIDTH 585 0
DWIDTH 26 0
BBX 22 34 2 2
BITMAP
0F8780
0F8780
0F8780
0F8780
000000
000000
000000
000000
007800
007800
01FE00
01FE00
01FE00
0FFF80
3F87F0
3F87F0
FE01FC
FE01FC
FE01FC
F0007C
F0007C
F0007C
F0007C
FFFFFC
FFFFFC
FFFFFC
FFFFFC
F0007C
F0007C
F0007C
F0007C
F0007C
F0007C
F0007C
ENDCHAR
STARTCHAR 00C5
ENCODING 197
SWIDTH 585 0
DWIDTH 26 0
BBX 22 34 2 2
BITMAP
007800
007800
018600
018600
018600
018600
007800
007800
007800
007800
01FE00
01FE00
01FE00
0FFF80
3F87F0
3F87F0
FE01FC
FE01FC
FE01FC
F0007C
F0007C
F0007C
F0007C
FFFFFC
FFFFFC
FFFFFC
FFFFFC
F0007C
F0007C
F0007C
F0007C
F0007C
F0007C
F0007C
ENDCHAR
STARTCHAR 00C6
ENCODING 198
SWIDTH 585 0
DWIDTH 26 0
BBX 22 32 2 2
BITMAP
001FFC
001FFC
007FFC
007FFC
01FE00
01FE00
0FFE00
0FFE00
3FFE00
3F9E00
3F9E00
3E1E00
3E1E00
F01FFC
F01FFC
F01FFC
F01FFC
F01E00
F01E00
FFFE00
FFFE00
FFFE00
FFFE00
F01E00
F01E00
F01E00
F01E00
F01E00
F01FFC
F01FFC
F01FFC
F01FFC
ENDCHAR
STARTCHAR 00C7
ENCODING 199
SWIDTH 585 0
DWIDTH 26 0
BBX 22 30 2 2
BITMAP
0FFF80
0FFF80
3FFFF0
3FFFF0
FE01FC
FE01FC
F0007C
F0007C
F00000
F00000
F00000
F00000
F00000
F00000
F00000
F0007C
F0007C
FE01FC
FE01FC
3FFFF0
3FFFF0
0FFF80
0FFF80
007E00
007E00
01F800
01F800
01F800
0FE000
0FE000
ENDCHAR
STARTCHAR 00C8
ENCODING 200
SWIDTH 585 0
DWIDTH 26 0
BBX 22 34 2 2
BITMAP
0FE000
0FE000
01F800
01F800
001E00
001E00
000000
000000
FFFFFC
FFFFFC
FFFFFC
FFFFFC
F00000
F00000
F00000
F00000
F00000
F00000
F00000
FFFF80
FFFF80
FFFF80
FFFF80
F00000
F00000
F00000
F00000
F00000
F00000
F00000
FFFFFC
FFFFFC
FFFFFC
FFFFFC
ENDCHAR
STARTCHAR 00C9
ENCODING 201
SWIDTH 585 0
DWIDTH 26 0
BBX 22 34 2 2
BITMAP
001F80
001F80
007E00
007E00
01E000
01E000
000000
000000
FFFFFC
FFFFFC
FFFFFC
FFFFFC
F00000
F00000
F00000
F00000
F00000
F00000
F00000
FFFF80
FFFF80
FFFF80
FFFF80
F00000
F00000
F00000
F00000
F00000
F00000
F00000
FFFFFC
FFFFFC
FFFFFC
FFFFFC
ENDCHAR
STARTCHAR 00CA
ENCODING 202
SWIDTH 585 0
DWIDTH 26 0
BBX 22 34 2 2
BITMAP
007800
007800
01FE00
01FE00
0F8780
0F8780
000000
000000
FFFFFC
FFFFFC
FFFFFC
FFFFFC
F00000
F00000
F00000
F00000
F00000
F00000
F00000
FFFF80
FFFF80
FFFF80
FFFF80
F00000
F00000
F00000
F00000
F00000
F00000
F00000
FFFFFC
FFFFFC
FFFFFC
FFFFFC
ENDCHAR
STARTCHAR 00CB
ENCODING 203
SWIDTH 585 0
DWIDTH 26 0
BBX 22 34 2 2
BITMAP
0F8780
0F8780
0F8780
0F8780
000000
000000
000000
000000
FFFFFC
FFFFFC
FFFFFC
FFFFFC
F00000
F00000
F00000
F00000
F00000
F00000
F00000
FFFF80
FFFF80
FFFF80
FFFF80
F00000
F00000
F00000
F00000
F00000
F00000
F00000
FFFFFC
FFFFFC
FFFFFC
FFFFFC
ENDCHAR
STARTCHAR 00CC
ENCODING 204
SWIDTH 585 0
DWIDTH 26 0
BBX 13 34 6 2
BITMAP
FE00
FE00
1F80
1F80
01E0
01E0
0000
0000
FFF8
FFF8
FFF8
FFF8
0780
0780
0780
0780
0780
0780
0780
0780
0780
0780
0780
0780
0780
0780
0780
0780
0780
0780
FFF8
FFF8
FFF8
FFF8
ENDCHAR
STARTCHAR 00CD
ENCODING 205
SWIDTH 585 0
DWIDTH 26 0
BBX 13 34 6 2
BITMAP
01F8
01F8
07E0
07E0
1E00
1E00
0000
0000
FFF8
FFF8
FFF8
FFF8
0780
0780
0780
0780
0780
0780
0780
0780
0780
0780
0780
0780
0780
0780
0780
0780
0780
0780
FFF8
FFF8
FFF8
FFF8
ENDCHAR
STARTCHAR 00CE
ENCODING 206
SWIDTH 585 0
DWIDTH 26 0
BBX 13 34 6 2
BITMAP
0780
0780
1FE0
1FE0
F878
F878
0000
0000
FFF8
FFF8
FFF8
FFF8
0780
0780
0780
0780
0780
0780
0780
0780
0780
0780
0780
0780
0780
0780
0780
0780
0780
0780
FFF8
FFF8
FFF8
FFF8
ENDCHAR
STARTCHAR 00CF
ENCODING 207
SWIDTH 585 0
DWIDTH 26 0
BBX 13 34 6 2
BITMAP
F878
F878
F878
F878
0000
0000
0000
0000
FFF8
FFF8
FFF8
FFF8
0780
0780
0780
0780
0780
0780
0780
0780
0780
0780
0780
0780
0780
0780
0780
0780
0780
0780
FFF8
FFF8
FFF8
FFF8
ENDCHAR
STARTCHAR 00D0
ENCODING 208
SWIDTH 585 0
DWIDTH 26 0
BBX 22 30 2 2
BITMAP
3FFF80
3FFF80
3FFFF0
3FFFF0
3E01FC
3E01FC
3E007C
3E007C
3E007C
3E007C
3E007C
3E007C
3E007C
FFE07C
FFE07C
FFE07C
FFE07C
3E007C
3E007C
3E007C
3E007C
3E007C
3E007C
3E007C
3E01FC
3E01FC
3FFFF0
3FFFF0
3FFF80
3FFF80
ENDCHAR
STARTCHAR 00D1
ENCODING 209
SWIDTH 585 0
DWIDTH 26 0
BBX 22 34 2 2
BITMAP
01E180
01E180
0FFF80
0FFF80
0E1E00
0E1E00
000000
000000
F0007C
F0007C
F0007C
F0007C
FE007C
FE007C
FF807C
FF807C
FF807C
FFE07C
FFE07C
F1F87C
F1F87C
F07E7C
F07E7C
F01FFC
F01FFC
F007FC
F007FC
F007FC
F001FC
F001FC
F0007C
F0007C
F0007C
F0007C
ENDCHAR
STARTCHAR 00D2
ENCODING 210
SWIDTH 585 0
DWIDTH 26 0
BBX 22 34 2 2
BITMAP
0FE000
0FE000
01F800
01F800
001E00
001E00
000000
000000
0FFF80
0FFF80
3FFFF0
3FFFF0
FE01FC
FE01FC
F0007C
F0007C
F0007C
F0007C
F0007C
F0007C
F0007C
F0007C
F0007C
F0007C
F0007C
F0007C
F0007C
F0007C
FE01FC
FE01FC
3FFFF0
3FFFF0
0FFF80
0FFF80
ENDCHAR
STARTCHAR 00D3
ENCODING 211
SWIDTH 585 0
DWIDTH 26 0
BBX 22 34 2 2
BITMAP
001F80
001F80
007E00
007E00
01E000
01E000
000000
000000
0FFF80
0FFF80
3FFFF0
3FFFF0
FE01FC
FE01FC
F0007C
F0007C
F0007C
F0007C
F0007C
F0007C
F0007C
F0007C
F0007C
F0007C
F0007C
F0007C
F0007C
F0007C
FE01FC
FE01FC
3FFFF0
3FFFF0
0FFF80
0FFF80
ENDCHAR
STARTCHAR 00D4
ENCODING 212
SWIDTH 585 0
DWIDTH 26 0
BBX 22 34 2 2
BITMAP
007800
007800
01FE00
01FE00
0F8780
0F8780
000000
000000
0FFF80
0FFF80
3FFFF0
3FFFF0
FE01FC
FE01FC
F0007C
F0007C
F0007C
F0007C
F0007C
F0007C
F0007C
F0007C
F0007C
F0007C
F0007C
F0007C
F0007C
F0007C
FE01FC
FE01FC
3FFFF0
3FFFF0
0FFF80
0FFF80
ENDCHAR
STARTCHAR 00D5
ENCODING 213
SWIDTH 585 0
DWIDTH 26 0
BBX 22 34 2 2
BITMAP
01E180
01E180
0FFF80
0FFF80
0E1E00
0E1E00
000000
000000
0FFF80
0FFF80
3FFFF0
3FFFF0
FE01FC
FE01FC
F0007C
F0007C
F0007C
F0007C
F0007C
F0007C
F0007C
F0007C
F0007C
F0007C
F0007C
F0007C
F0007C
F0007C
FE01FC
FE01FC
3FFFF0
3FFFF0
0FFF80
0FFF80
ENDCHAR
STARTCHAR 00D6
ENCODING 214
SWIDTH 585 0
DWIDTH 26 0
BBX 22 34 2 2
BITMAP
0F8780
0F8780
0F8780
0F8780
000000
000000
000000
000000
0FFF80
0FFF80
3FFFF0
3FFFF0
FE01FC
FE01FC
F0007C
F0007C
F0007C
F0007C
F0007C
F0007C
F0007C
F0007C
F0007C
F0007C
F0007C
F0007C
F0007C
F0007C
FE01FC
FE01FC
3FFFF0
3FFFF0
0FFF80
0FFF80
ENDCHAR
STARTCHAR 00D8
ENCODING 216
SWIDTH 585 0
DWIDTH 26 0
BBX 22 30 2 2
BITMAP
0FFE7C
0FFE7C
3FFFFC
3FFFFC
FE07E0
FE07E0
F007FC
F007FC
F01FFC
F01E7C
F01E7C
F01E7C
F01E7C
F0787C
F0787C
F0787C
F0787C
F1E07C
F1E07C
F1E07C
F1E07C
FFE07C
FF807C
FF807C
3F81FC
3F81FC
FFFFE0
FFFFE0
F1FF80
F1FF80
ENDCHAR
STARTCHAR 00D9
ENCODING 217
SWIDTH 585 0
DWIDTH 26 0
BBX 22 34 2 2
BITMAP
0FE000
0FE000
01F800
01F800
001E00
001E00
000000
000000
F0007C
F0007C
F0007C
F0007C
F0007C
F0007C
F0007C
F0007C
F0007C
F0007C
F0007C
F0007C
F0007C
F0007C
F0007C
F0007C
F0007C
F0007C
F0007C
F0007C
FE01FC
FE01FC
3FFFF0
3FFFF0
0FFF80
0FFF80
ENDCHAR
STARTCHAR 00DA
ENCODING 218
SWIDTH 585 0
DWIDTH 26 0
BBX 22 34 2 2
BITMAP
001F80
001F80
007E00
007E00
01E000
01E000
000000
000000
F0007C
F0007C
F0007C
F0007C
F0007C
F0007C
F0007C
F0007C
F0007C
F0007C
F0007C
F0007C
F0007C
F0007C
F0007C
F0007C
F0007C
F0007C
F0007C
F0007C
FE01FC
FE01FC
3FFFF0
3FFFF0
0FFF80
0FFF80
ENDCHAR
STARTCHAR 00DB
ENCODING 219
SWIDTH 585 0
DWIDTH 26 0
BBX 22 34 2 2
BITMAP
007800
007800
01FE00
01FE00
0F8780
0F8780
000000
000000
F0007C
F0007C
F0007C
F0007C
F0007C
F0007C
F0007C
F0007C
F0007C
F0007C
F0007C
F0007C
F0007C
F0007C
F0007C
F0007C
F0007C
F0007C
F0007C
F0007C
FE01FC
FE01FC
3FFFF0
3FFFF0
0FFF80
0FFF80
ENDCHAR
STARTCHAR 00DC
ENCODING 220
SWIDTH 585 0
DWIDTH 26 0
BBX 22 34 2 2
BITMAP
0F8780
0F8780
0F8780
0F8780
000000
000000
000000
000000
F0007C
F0007C
F0007C
F0007C
F0007C
F0007C
F0007C
F0007C
F0007C
F0007C
F0007C
F0007C
F0007C
F0007C
F0007C
F0007C
F0007C
F0007C
F0007C
F0007C
FE01FC
FE01FC
3FFFF0
3FFFF0
0FFF80
0FFF80
ENDCHAR
STARTCHAR 00DD
ENCODING 221
SWIDTH 585 0
DWIDTH 26 0
BBX 22 34 2 2
BITMAP
001F80
001F80
007E00
007E00
01E000
01E000
000000
000000
F0007C
F0007C
F0007C
F0007C
F0007C
F0007C
F0007C
FE01FC
FE01FC
3F87F0
3F87F0
0FFF80
0FFF80
01FE00
01FE00
007800
007800
007800
007800
007800
007800
007800
007800
007800
007800
007800
ENDCHAR
STARTCHAR 00DE
ENCODING 222
SWIDTH 585 0
DWIDTH 26 0
BBX 22 32 2 2
BITMAP
F00000
F00000
F00000
F00000
F00000
F00000
FFFF80
FFFF80
FFFFF0
FFFFF0
F001FC
F001FC
F0007C
F0007C
F0007C
F0007C
F0007C
F0007C
F0007C
F001FC
F001FC
FFFFF0
FFFFF0
FFFF80
FFFF80
F00000
F00000
F00000
F00000
F00000
F00000
F00000
ENDCHAR
STARTCHAR 00DF
ENCODING 223
SWIDTH 585 0
DWIDTH 26 0
BBX 19 34 2 2
BITMAP
0F8000
0F8000
3FF800
3FF800
FE7E00
FE7E00
F01E00
F01E00
F01E00
F01E00
F01E00
F01E00
F01E00
F07800
F07800
F07800
F07800
F07800
F07800
F07E00
F07E00
F01F80
F01F80
F007E0
F007E0
F007E0
F001E0
F001E0
F001E0
F001E0
F1FFE0
F1FFE0
F1FF80
F1FF80
ENDCHAR
STARTCHAR 00E0
ENCODING 224
SWIDTH 585 0
DWIDTH 26 0
BBX 22 30 2 2
BITMAP
0FE000
0FE000
01F800
01F800
001E00
001E00
000000
000000
000000
0FFF80
0FFF80
0FFFF0
0FFFF0
00007C
00007C
0FFE7C
0FFE7C
3FFFFC
3FFFFC
FE01FC
FE01FC
F0007C
F0007C
F0007C
FE01FC
FE01FC
3FFFFC
3FFFFC
0FFE7C
0FFE7C
ENDCHAR
STARTCHAR 00E1
ENCODING 225
SWIDTH 585 0
DWIDTH 26 0
BBX 22 30 2 2
BITMAP
001F80
001F80
007E00
007E00
01E000
01E000
000000
000000
000000
0FFF80
0FFF80
0FFFF0
0FFFF0
00007C
00007C
0FFE7C
0FFE7C
3FFFFC
3FFFFC
FE01FC
FE01FC
F0007C
F0007C
F0007C
FE01FC
FE01FC
3FFFFC
3FFFFC
0FFE7C
0FFE7C
ENDCHAR
STARTCHAR 00E2
ENCODING 226
SWIDTH 585 0
DWIDTH 26 0
BBX 22 30 2 2
BITMAP
007800
007800
01FE00
01FE00
0F8780
0F8780
000000
000000
000000
0FFF80
0FFF80
0FFFF0
0FFFF0
00007C
00007C
0FFE7C
0FFE7C
3FFFFC
3FFFFC
FE01FC
FE01FC
F0007C
F0007C
F0007C
FE01FC
FE01FC
3FFFFC
3FFFFC
0FFE7C
0FFE7C
ENDCHAR
STARTCHAR 00E3
ENCODING 227
SWIDTH 585 0
DWIDTH 26 0
BBX 22 30 2 2
BITMAP
01E180
01E180
0FFF80
0FFF80
0E1E00
0E1E00
000000
000000
000000
0FFF80
0FFF80
0FFFF0
0FFFF0
00007C
00007C
0FFE7C
0FFE7C
3FFFFC
3FFFFC
FE01FC
FE01FC
F0007C
F0007C
F0007C
FE01FC
FE01FC
3FFFFC
3FFFFC
0FFE7C
0FFE7C
ENDCHAR
STARTCHAR 00E4
ENCODING 228
SWIDTH 585 0
DWIDTH 26 0
BBX 22 30 2 2
BITMAP
0F8780
0F8780
0F8780
0F8780
000000
000000
000000
000000
000000
0FFF80
0FFF80
0FFFF0
0FFFF0
00007C
00007C
0FFE7C
0FFE7C
3FFFFC
3FFFFC
FE01FC
FE01FC
F0007C
F0007C
F0007C
FE01FC
FE01FC
3FFFFC
3FFFFC
0FFE7C
0FFE7C
ENDCHAR
STARTCHAR 00E5
ENCODING 229
SWIDTH 585 0
DWIDTH 26 0
BBX 22 30 2 2
BITMAP
007800
007800
018600
018600
018600
018600
007800
007800
0FFF80
0FFF80
0FFFF0
0FFFF0
00007C
00007C
00007C
0FFE7C
0FFE7C
3FFFFC
3FFFFC
FE01FC
FE01FC
F0007C
F0007C
F0007C
FE01FC
FE01FC
3FFFFC
3FFFFC
0FFE7C
0FFE7C
ENDCHAR
STARTCHAR 00E6
ENCODING 230
SWIDTH 585 0
DWIDTH 26 0
BBX 22 24 2 2
BITMAP
FF87E0
FF87E0
FFFFFC
FFFFFC
00787C
00787C
00787C
00787C
00787C
3FFFFC
3FFFFC
FFFFFC
FFFFFC
F07800
F07800
F07800
F07800
F07800
F07800
F07800
FFFFE0
FFFFE0
3FE7E0
3FE7E0
ENDCHAR
STARTCHAR 00E7
ENCODING 231
SWIDTH 585 0
DWIDTH 26 0
BBX 22 28 2 2
BITMAP
0FFF80
0FFF80
3FFFF0
3FFFF0
FE01FC
FE01FC
F0007C
F0007C
F00000
F00000
F00000
F00000
F00000
F0007C
F0007C
FE01FC
FE01FC
3FFFF0
3FFFF0
0FFF80
0FFF80
007E00
007E00
01F800
01F800
01F800
0FE000
0FE000
ENDCHAR
STARTCHAR 00E8
ENCODING 232
SWIDTH 585 0
DWIDTH 26 0
BBX 22 30 2 2
BITMAP
0FE000
0FE000
01F800
01F800
001E00
001E00
000000
000000
000000
0FFF80
3FFFF0
3FFFF0
3FFFF0
FE01FC
FE01FC
F0007C
F0007C
FFFFFC
FFFFFC
FFFFF0
FFFFF0
F00000
F00000
F00000
FE01FC
FE01FC
3FFFF0
3FFFF0
0FFF80
0FFF80
ENDCHAR
STARTCHAR 00E9
ENCODING 233
SWIDTH 585 0
DWIDTH 26 0
BBX 22 30 2 2
BITMAP
001F80
001F80
007E00
007E00
01E000
01E000
000000
000000
000000
0FFF80
3FFFF0
3FFFF0
3FFFF0
FE01FC
FE01FC
F0007C
F0007C
FFFFFC
FFFFFC
FFFFF0
FFFFF0
F00000
F00000
F00000
FE01FC
FE01FC
3FFFF0
3FFFF0
0FFF80
0FFF80
ENDCHAR
STARTCHAR 00EA
ENCODING 234
SWIDTH 585 0
DWIDTH 26 0
BBX 22 30 2 2
BITMAP
007800
007800
01FE00
01FE00
0F8780
0F8780
000000
000000
000000
0FFF80
3FFFF0
3FFFF0
3FFFF0
FE01FC
FE01FC
F0007C
F0007C
FFFFFC
FFFFFC
FFFFF0
FFFFF0
F00000
F00000
F00000
FE01FC
FE01FC
3FFFF0
3FFFF0
0FFF80
0FFF80
ENDCHAR
STARTCHAR 00EB
ENCODING 235
SWIDTH 585 0
DWIDTH 26 0
BBX 22 30 2 2
BITMAP
0F8780
0F8780
0F8780
0F8780
000000
000000
000000
000000
000000
0FFF80
3FFFF0
3FFFF0
3FFFF0
FE01FC
FE01FC
F0007C
F0007C
FFFFFC
FFFFFC
FFFFF0
FFFFF0
F00000
F00000
F00000
FE01FC
FE01FC
3FFFF0
3FFFF0
0FFF80
0FFF80
ENDCHAR
STARTCHAR 00EC
ENCODING 236
SWIDTH 585 0
DWIDTH 26 0
BBX 15 30 4 2
BITMAP
FE00
FE00
3F80
3F80
01E0
01E0
0000
0000
0000
0000
0000
3FE0
3FE0
3FE0
3FE0
01E0
01E0
01E0
01E0
01E0
01E0
01E0
01E0
01E0
01F8
01F8
007E
007E
001E
001E
ENDCHAR
STARTCHAR 00ED
ENCODING 237
SWIDTH 585 0
DWIDTH 26 0
BBX 13 30 6 2
BITMAP
01F8
01F8
07E0
07E0
1E00
1E00
0000
0000
0000
0000
0000
FF80
FF80
FF80
FF80
0780
0780
0780
0780
0780
0780
0780
0780
0780
07E0
07E0
01F8
01F8
0078
0078
ENDCHAR
STARTCHAR 00EE
ENCODING 238
SWIDTH 585 0
DWIDTH 26 0
BBX 15 30 4 2
BITMAP
0780
0780
3FE0
3FE0
F878
F878
0000
0000
0000
0000
0000
3FE0
3FE0
3FE0
3FE0
01E0
01E0
01E0
01E0
01E0
01E0
01E0
01E0
01E0
01F8
01F8
007E
007E
001E
001E
ENDCHAR
STARTCHAR 00EF
ENCODING 239
SWIDTH 585 0
DWIDTH 26 0
BBX 15 30 4 2
BITMAP
F878
F878
F878
F878
0000
0000
0000
0000
0000
0000
0000
3FE0
3FE0
3FE0
3FE0
01E0
01E0
01E0
01E0
01E0
01E0
01E0
01E0
01E0
01F8
01F8
007E
007E
001E
001E
ENDCHAR
STARTCHAR 00F0
ENCODING 240
SWIDTH 585 0
DWIDTH 26 0
BBX 22 32 2 2
BITMAP
0001E0
0001E0
0001E0
0001E0
01FFFC
01FFFC
01FFFC
01FFFC
0001E0
0001E0
0001E0
0FFFE0
0FFFE0
3FFFE0
3FFFE0
FE01E0
FE01E0
F001E0
F001E0
F001E0
F001E0
F001E0
F001E0
F001E0
F001E0
F001E0
FE07E0
FE07E0
3FFF80
3FFF80
0FFE00
0FFE00
ENDCHAR
STARTCHAR 00F1
ENCODING 241
SWIDTH 585 0
DWIDTH 26 0
BBX 22 30 2 2
BITMAP
01E180
01E180
0FFF80
0FFF80
0E1E00
0E1E00
000000
000000
000000
F1FF80
F1FF80
FFFFF0
FFFFF0
FE01FC
FE01FC
F0007C
F0007C
F0007C
F0007C
F0007C
F0007C
F0007C
F0007C
F0007C
F0007C
F0007C
F0007C
F0007C
F0007C
F0007C
ENDCHAR
STARTCHAR 00F2
ENCODING 242
SWIDTH 585 0
DWIDTH 26 0
BBX 22 30 2 2
BITMAP
0FE000
0FE000
01F800
01F800
001E00
001E00
000000
000000
000000
0FFF80
0FFF80
3FFFF0
3FFFF0
FE01FC
FE01FC
F0007C
F0007C
F0007C
F0007C
F0007C
F0007C
F0007C
F0007C
F0007C
FE01FC
FE01FC
3FFFF0
3FFFF0
0FFF80
0FFF80
ENDCHAR
STARTCHAR 00F3
ENCODING 243
SWIDTH 585 0
DWIDTH 26 0
BBX 22 30 2 2
BITMAP
001F80
001F80
007E00
007E00
01E000
01E000
000000
000000
000000
0FFF80
0FFF80
3FFFF0
3FFFF0
FE01FC
FE01FC
F0007C
F0007C
F0007C
F0007C
F0007C
F0007C
F0007C
F0007C
F0007C
FE01FC
FE01FC
3FFFF0
3FFFF0
0FFF80
0FFF80
ENDCHAR
STARTCHAR 00F4
ENCODING 244
SWIDTH 585 0
DWIDTH 26 0
BBX 22 30 2 2
BITMAP
007800
007800
01FE00
01FE00
0F8780
0F8780
000000
000000
000000
0FFF80
0FFF80
3FFFF0
3FFFF0
FE01FC
FE01FC
F0007C
F0007C
F0007C
F0007C
F0007C
F0007C
F0007C
F0007C
F0007C
FE01FC
FE01FC
3FFFF0
3FFFF0
0FFF80
0FFF80
ENDCHAR
STARTCHAR 00F5
ENCODING 245
SWIDTH 585 0
DWIDTH 26 0
BBX 22 30 2 2
BITMAP
01E180
01E180
0FFF80
0FFF80
0E1E00
0E1E00
000000
000000
000000
0FFF80
0FFF80
3FFFF0
3FFFF0
FE01FC
FE01FC
F0007C
F0007C
F0007C
F0007C
F0007C
F0007C
F0007C
F0007C
F0007C
FE01FC
FE01FC
3FFFF0
3FFFF0
0FFF80
0FFF80
ENDCHAR
STARTCHAR 00F6
ENCODING 246
SWIDTH 585 0
DWIDTH 26 0
BBX 22 30 2 2
BITMAP
0F8780
0F8780
0F8780
0F8780
000000
000000
000000
000000
000000
0FFF80
0FFF80
3FFFF0
3FFFF0
FE01FC
FE01FC
F0007C
F0007C
F0007C
F0007C
F0007C
F0007C
F0007C
F0007C
F0007C
FE01FC
FE01FC
3FFFF0
3FFFF0
0FFF80
0FFF80
ENDCHAR
STARTCHAR 00F8
ENCODING 248
SWIDTH 585 0
DWIDTH 26 0
BBX 22 24 2 2
BITMAP
0FFE7C
0FFE7C
3FFFFC
3FFFFC
FE01E0
FE01E0
F007FC
F007FC
F01FFC
F01E7C
F07E7C
F0787C
F0787C
F1F87C
F1E07C
FFE07C
FF807C
FF807C
3E01FC
3E01FC
FFFFE0
FFFFE0
F1FF80
F1FF80
ENDCHAR
STARTCHAR 00F9
ENCODING 249
SWIDTH 585 0
DWIDTH 26 0
BBX 22 30 2 2
BITMAP
0FE000
0FE000
01F800
01F800
001E00
001E00
000000
000000
000000
F0007C
F0007C
F0007C
F0007C
F0007C
F0007C
F0007C
F0007C
F0007C
F0007C
F0007C
F0007C
F0007C
F0007C
F0007C
FE01FC
FE01FC
3FFFF0
3FFFF0
0FFF80
0FFF80
ENDCHAR
STARTCHAR 00FA
ENCODING 250
SWIDTH 585 0
DWIDTH 26 0
BBX 22 30 2 2
BITMAP
001F80
001F80
007E00
007E00
01E000
01E000
000000
000000
000000
F0007C
F0007C
F0007C
F0007C
F0007C
F0007C
F0007C
F0007C
F0007C
F0007C
F0007C
F0007C
F0007C
F0007C
F0007C
FE01FC
FE01FC
3FFFF0
3FFFF0
0FFF80
0FFF80
ENDCHAR
STARTCHAR 00FB
ENCODING 251
SWIDTH 585 0
DWIDTH 26 0
BBX 22 30 2 2
BITMAP
007800
007800
01FE00
01FE00
0F8780
0F8780
000000
000000
000000
F0007C
F0007C
F0007C
F0007C
F0007C
F0007C
F0007C
F0007C
F0007C
F0007C
F0007C
F0007C
F0007C
F0007C
F0007C
FE01FC
FE01FC
3FFFF0
3FFFF0
0FFF80
0FFF80
ENDCHAR
STARTCHAR 00FC
ENCODING 252
SWIDTH 585 0
DWIDTH 26 0
BBX 22 30 2 2
BITMAP
0F8780
0F8780
0F8780
0F8780
000000
000000
000000
000000
000000
F0007C
F0007C
F0007C
F0007C
F0007C
F0007C
F0007C
F0007C
F0007C
F0007C
F0007C
F0007C
F0007C
F0007C
F0007C
FE01FC
FE01FC
3FFFF0
3FFFF0
0FFF80
0FFF80
ENDCHAR
STARTCHAR 00FD
ENCODING 253
SWIDTH 585 0
DWIDTH 26 0
BBX 22 30 2 2
BITMAP
001F80
001F80
007E00
007E00
01E000
01E000
000000
000000
F0007C
F0007C
F001FC
F001FC
F001FC
F007FC
F007FC
FE1FFC
FE1FFC
3FFE7C
3FFE7C
0FF87C
0FF87C
00007C
00007C
00007C
0001FC
0001FC
0FFFF0
0FFFF0
0FFF80
0FFF80
ENDCHAR
STARTCHAR 00FE
ENCODING 254
SWIDTH 585 0
DWIDTH 26 0
BBX 22 28 2 2
BITMAP
F00000
F00000
F00000
F00000
F07F80
F07F80
F07F80
FFFFF0
FF81FC
FF81FC
FF81FC
F0007C
F0007C
F0007C
F0007C
F0007C
F0007C
FF81FC
FF81FC
FFFFF0
FFFFF0
F07F80
F07F80
F00000
F00000
F00000
F00000
F00000
ENDCHAR
STARTCHAR 00FF
ENCODING 255
SWIDTH 585 0
DWIDTH 26 0
BBX 22 30 2 2
BITMAP
0F8780
0F8780
0F8780
0F8780
000000
000000
000000
000000
F0007C
F0007C
F001FC
F001FC
F001FC
F007FC
F007FC
FE1FFC
FE1FFC
3FFE7C
3FFE7C
0FF87C
0FF87C
00007C
00007C
00007C
0001FC
0001FC
0FFFF0
0FFFF0
0FFF80
0FFF80
ENDCHAR
STARTCHAR 037E
ENCODING 894
SWIDTH 585 0
DWIDTH 26 0
BBX 9 26 4 2
BITMAP
0780
0780
0780
0780
0000
0000
0000
0000
0000
0000
0000
0000
0000
0000
0000
0000
0000
0780
0780
0780
0780
0780
3E00
3E00
F800
F800
ENDCHAR
STARTCHAR 2018
ENCODING 8216
SWIDTH 585 0
DWIDTH 26 0
BBX 6 13 13 19
BITMAP
0C
0C
30
30
F0
F0
FC
FC
FC
FC
FC
FC
FC
ENDCHAR
STARTCHAR 2019
ENCODING 8217
SWIDTH 585 0
DWIDTH 26 0
BBX 7 13 6 19
BITMAP
FE
FE
FE
FE
FE
FE
1E
1E
1E
18
18
E0
E0
ENDCHAR
STARTCHAR 201C
ENCODING 8220
SWIDTH 585 0
DWIDTH 26 0
BBX 17 13 4 19
BITMAP
060180
060180
380600
380600
F81E00
F81E00
F81E00
FE1F80
FE1F80
FE1F80
FE1F80
FE1F80
FE1F80
ENDCHAR
STARTCHAR 201D
ENCODING 8221
SWIDTH 585 0
DWIDTH 26 0
BBX 17 13 4 19
BITMAP
FE1F80
FE1F80
FE1F80
FE1F80
FE1F80
FE1F80
3E0780
3E0780
3E0780
380600
380600
C01800
C01800
ENDCHAR
STARTCHAR 2022
ENCODING 8226
SWIDTH 585 0
DWIDTH 26 0
BBX 13 11 6 13
BITMAP
1FE0
1FE0
1FE0
FFF8
FFF8
FFF8
FFF8
FFF8
FFF8
1FE0
1FE0
ENDCHAR
STARTCHAR 2026
ENCODING 8230
SWIDTH 585 0
DWIDTH 26 0
BBX 22 4 2 2
BITMAP
F0787C
F0787C
F0787C
F0787C
ENDCHAR
STARTCHAR 2039
ENCODING 8249
SWIDTH 585 0
DWIDTH 26 0
BBX 11 19 4 2
BITMAP
0060
0060
01E0
01E0
0780
0780
3E00
3E00
F800
F800
F800
3E00
3E00
0780
0780
01E0
01E0
0060
0060
ENDCHAR
STARTCHAR 203A
ENCODING 8250
SWIDTH 585 0
DWIDTH 26 0
BBX 11 19 6 2
BITMAP
E000
E000
F800
F800
1E00
1E00
0780
0780
01E0
01E0
01E0
0780
0780
1E00
1E00
F800
F800
E000
E000
ENDCHAR
STARTCHAR 2044
ENCODING 8260
SWIDTH 585 0
DWIDTH 26 0
BBX 22 30 2 2
BITMAP
00007C
00007C
00007C
00007C
00007C
00007C
0001FC
0001FC
0001FC
0007F0
0007F0
001F80
001F80
007E00
007E00
01F800
01F800
0FE000
0FE000
3F8000
3F8000
FE0000
FE0000
FE0000
F00000
F00000
F00000
F00000
F00000
F00000
ENDCHAR
STARTCHAR 20A3
ENCODING 8355
SWIDTH 585 0
DWIDTH 26 0
BBX 22 30 2 2
BITMAP
3FFFFC
3FFFFC
3FFFFC
3FFFFC
3E0000
3E0000
3E0000
3E0000
3E0000
3E0000
3E0000
3E0000
3E0000
3FFF80
3FFF80
3FFF80
3FFF80
3E0000
3E0000
3E0000
3E0000
FFE000
FFE000
3E0000
3E0000
3E0000
3E0000
3E0000
3E0000
3E0000
ENDCHAR
STARTCHAR 20A4
ENCODING 8356
SWIDTH 585 0
DWIDTH 26 0
BBX 22 34 2 2
BITMAP
007F80
007F80
01FFE0
01FFE0
0FE1FC
0FE1FC
0F807C
0F807C
0F8000
0F8000
0F8000
0F8000
0F8000
FFFF80
FFFF80
FFFF80
FFFF80
0F8000
0F8000
FFFF80
FFFF80
FFFF80
FFFF80
0F8000
0F8000
0F8000
0F8000
0F8000
3E0000
3E0000
FFFFFC
FFFFFC
FFFFFC
FFFFFC
ENDCHAR
STARTCHAR 20A7
ENCODING 8359
SWIDTH 585 0
DWIDTH 26 0
BBX 22 30 2 2
BITMAP
FE0000
FE0000
CF8000
CF8000
C18000
C18000
C18000
C18000
C18000
C18000
C18000
C19800
C19800
C19800
C19800
CFFFFC
CFFFFC
FE199C
FE199C
C01980
C01980
C019FC
C019FC
C0181C
C0181C
C0199C
C0199C
C0199C
C019FC
C019FC
ENDCHAR
STARTCHAR 20AC
ENCODING 8364
SWIDTH 585 0
DWIDTH 26 0
BBX 22 34 2 2
BITMAP
007F80
007F80
01FFF0
01FFF0
0FE07C
0FE07C
3F8000
3F8000
3E0000
3E0000
FFF800
FFF800
FFF800
FFF800
3E0000
3E0000
3E0000
FFF800
FFF800
FFF800
FFF800
3E0000
3E0000
3E0000
3E0000
3E0000
3F8000
3F8000
0FE07C
0FE07C
01FFF0
01FFF0
007F80
007F80
ENDCHAR
STARTCHAR 2122
ENCODING 8482
SWIDTH 585 0
DWIDTH 26 0
BBX 22 13 2 19
BITMAP
FFF81C
FFF81C
0E1E7C
0E1E7C
0E199C
0E199C
0E181C
0E181C
0E181C
0E181C
0E181C
0E181C
0E181C
ENDCHAR
STARTCHAR 2190
ENCODING 8592
SWIDTH 585 0
DWIDTH 26 0
BBX 22 22 2 6
BITMAP
007800
007800
01E000
01E000
018000
0F8000
0F8000
3E0000
3E0000
FFFFFC
FFFFFC
FFFFFC
FFFFFC
3E0000
3E0000
0F8000
0F8000
0FE000
01E000
01E000
007800
007800
ENDCHAR
STARTCHAR 2191
ENCODING 8593
SWIDTH 585 0
DWIDTH 26 0
BBX 22 22 2 6
BITMAP
007800
007800
007800
007800
01FE00
01FE00
01FE00
01FE00
01FE00
0F8780
0F8780
0F8780
0F8780
3E01E0
3E01E0
3E01E0
3E01E0
3E01E0
F0007C
F0007C
F0007C
F0007C
ENDCHAR
STARTCHAR 2192
ENCODING 8594
SWIDTH 585 0
DWIDTH 26 0
BBX 22 22 2 6
BITMAP
007800
007800
001E00
001E00
001F80
000780
000780
0001E0
0001E0
FFFFFC
FFFFFC
FFFFFC
FFFFFC
0001E0
0001E0
000780
000780
000600
001E00
001E00
007800
007800
ENDCHAR
STARTCHAR 2193
ENCODING 8595
SWIDTH 585 0
DWIDTH 26 0
BBX 22 22 2 6
BITMAP
F0007C
F0007C
F0007C
F0007C
3E01E0
3E01E0
3E01E0
3E01E0
3E01E0
0F8780
0F8780
0F8780
0F8780
01FE00
01FE00
01FE00
01FE00
01FE00
007800
007800
007800
007800
ENDCHAR
STARTCHAR 2194
ENCODING 8596
SWIDTH 585 0
DWIDTH 26 0
BBX 22 22 2 4
BITMAP
001800
001800
001E00
001E00
001F80
001F80
FFFFE0
FFFFE0
FFFFFC
FFFFFC
FFFFFC
FFFFFC
FFFFFC
FFFFE0
FFFFE0
001F80
001F80
001E00
001E00
001E00
001800
001800
ENDCHAR
STARTCHAR 2215
ENCODING 8725
SWIDTH 585 0
DWIDTH 26 0
BBX 22 30 2 2
BITMAP
00007C
00007C
00007C
00007C
00007C
00007C
0001FC
0001FC
0001FC
0007F0
0007F0
001F80
001F80
007E00
007E00
01F800
01F800
0FE000
0FE000
3F8000
3F8000
FE0000
FE0000
FE0000
F00000
F00000
F00000
F00000
F00000
F00000
ENDCHAR
STARTCHAR 25B2
ENCODING 9650
SWIDTH 585 0
DWIDTH 26 0
BBX 22 26 2 4
BITMAP
007800
007800
007800
007800
01FE00
01FE00
01FE00
01FE00
01FF80
0FFF80
0FFF80
0FFF80
0FFF80
3FFFE0
3FFFE0
3FFFE0
3FFFE0
FFFFFC
FFFFFC
FFFFFC
FFFFFC
FFFFFC
FFFFFC
FFFFFC
FFFFFC
FFFFFC
ENDCHAR
STARTCHAR 25BA
ENCODING 9658
SWIDTH 585 0
DWIDTH 26 0
BBX 17 26 4 4
BITMAP
FE0000
FE0000
FF8000
FF8000
FFE000
FFE000
FFF800
FFF800
FFF800
FFFE00
FFFE00
FFFF80
FFFF80
FFFF80
FFFF80
FFFE00
FFFE00
FFF800
FFF800
FFE000
FFE000
FFE000
FF8000
FF8000
FE0000
FE0000
ENDCHAR
STARTCHAR 25BC
ENCODING 9660
SWIDTH 585 0
DWIDTH 26 0
BBX 22 26 2 4
BITMAP
FFFFFC
FFFFFC
FFFFFC
FFFFFC
FFFFFC
FFFFFC
FFFFFC
FFFFFC
FFFFFC
3FFFE0
3FFFE0
3FFFE0
3FFFE0
0FFF80
0FFF80
0FFF80
0FFF80
0FFE00
01FE00
01FE00
01FE00
01FE00
007800
007800
007800
007800
ENDCHAR
STARTCHAR 25C4
ENCODING 9668
SWIDTH 585 0
DWIDTH 26 0
BBX 17 26 4 4
BITMAP
001F80
001F80
007F80
007F80
01FF80
01FF80
07FF80
07FF80
07FF80
3FFF80
3FFF80
FFFF80
FFFF80
FFFF80
FFFF80
3FFF80
3FFF80
07FF80
07FF80
01FF80
01FF80
01FF80
007F80
007F80
001F80
001F80
ENDCHAR
ENDFONT
